<?xml version="1.0" encoding="UTF-8" standalone="no"?><!DOCTYPE svg PUBLIC "-//W3C//DTD SVG 1.1//EN" "http://www.w3.org/Graphics/SVG/1.1/DTD/svg11.dtd"><svg width="100%" height="100%" viewBox="0 0 840 339" version="1.1" xmlns="http://www.w3.org/2000/svg" xmlns:xlink="http://www.w3.org/1999/xlink" xml:space="preserve" xmlns:serif="http://www.serif.com/" style="fill-rule:evenodd;clip-rule:evenodd;stroke-linejoin:round;stroke-miterlimit:2;"><rect id="GSoM-Horizontal-WhiteText" x="0" y="0" width="839.583" height="338.108" style="fill:none;"/><g id="Layer-1" serif:id="Layer 1"><path d="M156.867,61.588l-52.3,52.3l-15.467,-15.471c-1.629,-1.625 -4.267,-1.625 -5.892,0l-73.654,73.654c-0.388,0.387 -0.692,0.846 -0.904,1.358c-0.425,1.017 -0.421,2.163 0,3.183c0.213,0.508 0.517,0.971 0.904,1.358l147.308,147.304c0.071,0.079 0.179,0.113 0.258,0.179c0.071,0.062 0.108,0.154 0.192,0.212c0.171,0.129 0.371,0.192 0.554,0.292c0.125,0.067 0.221,0.167 0.35,0.221c0.05,0.021 0.104,0.025 0.154,0.042c0.471,0.175 0.95,0.279 1.433,0.279l0.008,0c0.542,0 1.079,-0.108 1.592,-0.321c0.046,-0.021 0.087,-0.054 0.137,-0.079c0.142,-0.067 0.258,-0.183 0.396,-0.267c0.283,-0.175 0.588,-0.325 0.821,-0.558l147.308,-147.304c0.383,-0.387 0.692,-0.85 0.904,-1.358c0.421,-1.021 0.421,-2.167 0,-3.183c-0.213,-0.513 -0.521,-0.971 -0.904,-1.358l-73.654,-73.654c-1.563,-1.563 -4.325,-1.563 -5.892,0l-15.467,15.471l-52.3,-52.3c-0.779,-0.779 -1.862,-1.171 -2.942,-1.171c-1.083,0 -2.167,0.392 -2.946,1.171Zm-46.408,58.187l49.354,-49.35l52.187,52.196c0.038,0.038 0.05,0.087 0.088,0.121c0.038,0.042 0.088,0.05 0.129,0.088l48.021,48.021l-98.7,0l-51.079,-51.075Zm110.487,0l12.521,-12.521l63.6,63.596l-25.042,0l-51.079,-51.075Zm-134.792,-12.521l15.463,15.463c0,0.004 0.004,0.008 0.008,0.008l48.125,48.125l-127.196,0l63.6,-63.596Zm186.221,71.929l24.692,0l-98.758,98.758l74.067,-98.758Zm-108.396,0l97.988,0l-97.988,130.654l0,-130.654Zm-141.425,0l133.087,0l0,133.092l-133.087,-133.092Z" style="fill:url(#_Linear1);fill-rule:nonzero;"/><path d="M335.983,166.859l11.229,4.346l0.542,0l0,-30.879l-25.896,0l0,2.358l8.875,0l0,21.096c-0.546,0.092 -1.087,0.092 -1.721,0.092c-15.304,0 -21.642,-15.304 -21.642,-30.062c0,-10.954 3.713,-27.8 18.654,-27.8c6.608,0 13.221,3.171 16.842,8.062l-0.183,0.179c-1.267,-0.633 -2.717,-0.996 -4.346,-0.996c-5.254,0 -9.413,4.075 -9.413,9.233c0,5.162 4.158,9.058 9.413,9.058c5.254,0 9.6,-3.896 9.6,-10.688c0,-11.133 -11.05,-17.746 -24.992,-17.746c-19.292,0 -32.883,12.733 -34.587,30.583l37.058,37.058c3.967,-0.646 7.504,-1.983 10.567,-3.896" style="fill:#fff;fill-rule:nonzero;"/><path d="M411.72,147.209l-0.633,-0.271l-16.208,20.463l-16.208,0l0,-28.162l11.05,0l8.146,10.142l0.546,0l0,-22.633l-0.546,0l-8.146,10.142l-11.05,0l0,-29.971l12.312,0l18.567,18.562l0.633,-0.275l-3.442,-20.642l-51.883,0l0,0.542l6.787,5.796l0,52.517l-6.787,5.796l0,0.542l53.425,0l3.438,-22.546Z" style="fill:#fff;fill-rule:nonzero;"/><path d="M424.704,123.849l24.087,47.354l0.542,0l23,-59.217l0,50.979l-6.792,6.25l0,0.542l30.604,0l0,-0.542l-6.788,-6.25l0,-52.067l6.788,-5.796l0,-0.542l-23.812,0l-16.479,42.287l-21.279,-42.287l-19.379,0l0,0.542l6.792,13.404l0,44.912l-6.792,6.154l0,0.183l16.3,0l0,-0.183l-6.792,-6.154l0,-39.571Z" style="fill:#fff;fill-rule:nonzero;"/><path d="M543.104,168.488c-10.233,0 -18.112,-8.875 -22.458,-27.8l-0.542,0l1.812,30.517l0.179,0.092l9.6,-4.167c3.621,2.808 8.146,4.075 13.758,4.075c10.504,0 25.721,-4.438 25.721,-20.008c0,-22.912 -32.871,-23.275 -32.871,-37.85c0,-3.896 2.717,-7.608 9.233,-7.608c8.875,0 16.033,6.975 19.471,23l0.542,0l-1.808,-25.625l-0.183,-0.092l-7.517,4.075c-3.621,-2.717 -8.329,-3.983 -13.942,-3.983c-11.587,0 -23.546,5.342 -23.546,18.925c0,21.637 32.875,23.996 32.875,38.208c0,4.254 -2.992,8.242 -10.325,8.242" style="fill:#fff;fill-rule:nonzero;"/><path d="M591.847,106.918l7.062,0l0,56.05l-6.792,6.246l0,0.542l30.608,0l0,-0.542l-6.792,-6.246l0,-56.05l7.062,0l16.117,17.567l0.542,-0.183l-3.438,-19.737l-57.592,0l-3.438,19.737l0.542,0.183l16.117,-17.567Z" style="fill:#fff;fill-rule:nonzero;"/><path d="M651.1,147.753l9.421,-20.917l9.867,20.917l-19.288,0Zm17.654,-44.637l-0.358,0l-26.804,59.85l-6.792,6.25l0,0.542l16.3,0l0,-0.542l-6.792,-6.25l5.796,-12.858l21.462,0l6.062,12.858l-6.792,6.25l0,0.542l33.142,0l0,-0.542l-6.787,-6.25l-28.438,-59.85Z" style="fill:#fff;fill-rule:nonzero;"/><path d="M702.568,104.562l-3.438,19.742l0.542,0.179l16.117,-17.567l7.062,0l0,56.05l-6.792,6.25l0,0.537l30.608,0l0,-0.537l-6.796,-6.25l0,-56.05l7.062,0l16.117,17.567l0.546,-0.179l-3.438,-19.742l-57.592,0Z" style="fill:#fff;fill-rule:nonzero;"/><path d="M824.025,146.937l-16.204,20.463l-16.212,0l0,-28.158l11.05,0l8.15,10.137l0.546,0l0,-22.633l-0.546,0l-8.15,10.142l-11.05,0l0,-29.967l12.321,0l18.558,18.558l0.633,-0.271l-3.438,-20.646l-51.883,0l0,0.542l6.792,5.796l0,52.521l-6.792,5.796l0,0.542l53.417,0l3.442,-22.55l-0.633,-0.271Z" style="fill:#fff;fill-rule:nonzero;"/><path d="M326.704,178.002l-2.308,2.304c10.467,1.692 13.762,19.463 13.762,31.525c0,12.675 -3.625,31.692 -15.396,31.692c-11.771,0 -15.392,-19.017 -15.392,-31.692c0,-5.037 0.587,-11.067 2.017,-16.513l-20.921,20.917c2.096,17.212 16.333,29.642 34.296,29.642c19.471,0 34.592,-14.579 34.592,-34.046c0,-18.129 -13.121,-32.008 -30.65,-33.829" style="fill:#fff;fill-rule:nonzero;"/><path d="M361.197,179.233l0,0.542l6.792,5.796l0,52.067l-6.792,6.25l0,0.537l30.604,0l0,-0.537l-6.788,-6.25l0,-22.817l9.688,0l8.6,12.221l0.546,0l0,-26.8l-0.546,0l-8.6,12.221l-9.688,0l0,-30.875l10.5,0l18.833,18.383l0.638,-0.275l-3.713,-20.463l-50.075,0Z" style="fill:#fff;fill-rule:nonzero;"/><path d="M474.877,221.52l-21.283,-42.287l-19.375,0l0,0.542l6.792,13.404l0,44.912l-6.792,6.154l0,0.183l16.296,0l0,-0.183l-6.787,-6.154l0,-39.571l24.087,47.354l0.542,0l23,-59.217l0,50.979l-6.792,6.25l0,0.542l30.604,0l0,-0.542l-6.787,-6.25l0,-52.067l6.787,-5.796l0,-0.542l-23.812,0l-16.479,42.287Z" style="fill:#fff;fill-rule:nonzero;"/><path d="M518.11,179.774l6.792,6.25l0,51.612l-6.792,6.25l0,0.542l30.604,0l0,-0.542l-6.788,-6.25l0,-51.612l6.788,-6.25l0,-0.542l-30.604,0l0,0.542Z" style="fill:#fff;fill-rule:nonzero;"/><path d="M596.182,179.413l6.792,6.158l0,42.917l-30.333,-49.254l-21.008,0l0,0.537l6.787,10.958l0,47.358l-6.787,6.158l0,0.179l16.296,0l0,-0.179l-6.792,-6.158l0,-42.921l30.521,49.258l20.825,0l0,-0.542l-6.792,-11.05l0,-47.263l6.792,-6.158l0,-0.179l-16.3,0l0,0.179Z" style="fill:#fff;fill-rule:nonzero;"/><path d="M642.756,242.072l-3.533,0l0,-60.483l3.533,0c16.121,0 19.737,17.567 19.737,30.242c0,12.675 -3.617,30.242 -19.737,30.242m1.271,-62.842l-28.617,0l0,0.542l6.792,5.796l0,52.521l-6.792,5.796l0,0.542l28.617,0c22.542,0 37.667,-13.129 37.667,-32.596c0,-19.467 -15.125,-32.6 -37.667,-32.6" style="fill:#fff;fill-rule:nonzero;"/></g><defs><linearGradient id="_Linear1" x1="0" y1="0" x2="1" y2="0" gradientUnits="userSpaceOnUse" gradientTransform="matrix(0,-266.084798,266.084798,-0,159.810697,326.501083)"><stop offset="0" style="stop-color:#00aec7;stop-opacity:1"/><stop offset="1" style="stop-color:#8557ad;stop-opacity:1"/></linearGradient></defs></svg>