<?xml version="1.0" encoding="UTF-8" standalone="no"?><!DOCTYPE svg PUBLIC "-//W3C//DTD SVG 1.1//EN" "http://www.w3.org/Graphics/SVG/1.1/DTD/svg11.dtd"><svg width="100%" height="100%" viewBox="0 0 338 339" version="1.1" xmlns="http://www.w3.org/2000/svg" xmlns:xlink="http://www.w3.org/1999/xlink" xml:space="preserve" xmlns:serif="http://www.serif.com/" style="fill-rule:evenodd;clip-rule:evenodd;stroke-linejoin:round;stroke-miterlimit:2;"><rect id="GSoM-Icon" x="0" y="0" width="337.917" height="338.108" style="fill:none;"/><g id="Layer-1" serif:id="Layer 1"><path d="M166.015,37.183l-52.3,52.3l-15.467,-15.471c-1.629,-1.625 -4.267,-1.625 -5.892,0l-73.654,73.654c-0.388,0.387 -0.692,0.846 -0.904,1.358c-0.425,1.017 -0.421,2.163 0,3.183c0.213,0.508 0.517,0.971 0.904,1.358l147.308,147.304c0.071,0.079 0.179,0.113 0.258,0.179c0.071,0.062 0.108,0.154 0.192,0.212c0.171,0.129 0.371,0.192 0.554,0.292c0.125,0.067 0.221,0.167 0.35,0.221c0.05,0.021 0.104,0.025 0.154,0.042c0.471,0.175 0.95,0.279 1.433,0.279l0.008,0c0.542,0 1.079,-0.108 1.592,-0.321c0.046,-0.021 0.087,-0.054 0.137,-0.079c0.142,-0.067 0.258,-0.183 0.396,-0.267c0.283,-0.175 0.588,-0.325 0.821,-0.558l147.308,-147.304c0.383,-0.387 0.692,-0.85 0.904,-1.358c0.421,-1.021 0.421,-2.167 0,-3.183c-0.213,-0.513 -0.521,-0.971 -0.904,-1.358l-73.654,-73.654c-1.563,-1.563 -4.325,-1.563 -5.892,0l-15.467,15.471l-52.3,-52.3c-0.779,-0.779 -1.862,-1.171 -2.942,-1.171c-1.083,0 -2.167,0.392 -2.946,1.171Zm-46.408,58.187l49.354,-49.35l52.187,52.196c0.038,0.038 0.05,0.087 0.088,0.121c0.038,0.042 0.088,0.05 0.129,0.088l48.021,48.021l-98.7,0l-51.079,-51.075Zm110.487,0l12.521,-12.521l63.6,63.596l-25.042,0l-51.079,-51.075Zm-134.792,-12.521l15.463,15.463c0,0.004 0.004,0.008 0.008,0.008l48.125,48.125l-127.196,0l63.6,-63.596Zm186.221,71.929l24.692,0l-98.758,98.758l74.067,-98.758Zm-108.396,0l97.988,0l-97.988,130.654l0,-130.654Zm-141.425,0l133.087,0l0,133.092l-133.087,-133.092Z" style="fill:url(#_Linear1);fill-rule:nonzero;"/></g><defs><linearGradient id="_Linear1" x1="0" y1="0" x2="1" y2="0" gradientUnits="userSpaceOnUse" gradientTransform="matrix(0,-266.084798,266.084798,-0,168.958873,302.09692)"><stop offset="0" style="stop-color:#00aec7;stop-opacity:1"/><stop offset="1" style="stop-color:#8557ad;stop-opacity:1"/></linearGradient></defs></svg>